<?xml version="1.0" standalone="no"?>
<!DOCTYPE svg PUBLIC "-//W3C//DTD SVG 20010904//EN"
 "http://www.w3.org/TR/2001/REC-SVG-20010904/DTD/svg10.dtd">
<svg version="1.0" xmlns="http://www.w3.org/2000/svg"
 width="994.000000pt" height="959.000000pt" viewBox="0 0 994.000000 959.000000"
 preserveAspectRatio="xMidYMid meet">
<metadata>
Created by potrace 1.15, written by Peter Selinger 2001-2017
</metadata>
<g transform="translate(0.000000,959.000000) scale(0.100000,-0.100000)"
fill="#000000" stroke="none">
<path d="M1830 9503 c-25 -3 -48 -8 -52 -12 -5 -4 -13 -100 -19 -214 -9 -165
-9 -210 1 -222 7 -8 16 -15 20 -15 4 0 11 95 16 211 8 165 13 212 24 219 39
24 187 30 270 12 98 -23 94 -11 81 -238 -7 -115 -16 -203 -23 -211 -6 -7 -9
-16 -6 -18 10 -10 35 6 46 28 13 26 35 418 24 429 -4 4 -50 14 -102 23 -89 14
-177 17 -280 8z"/>
<path d="M6269 9262 c-31 -4 -33 -14 -49 -270 -7 -117 -7 -157 3 -172 19 -31
24 -24 25 33 2 72 22 337 27 364 5 21 29 28 170 47 17 2 -10 3 -60 3 -49 -1
-102 -3 -116 -5z"/>
<path d="M6565 9242 c96 -32 90 -12 75 -238 -7 -110 -18 -205 -23 -212 -17
-22 3 -27 23 -6 18 17 22 44 34 224 8 112 12 209 9 216 -2 6 -35 16 -73 23
-92 15 -106 13 -45 -7z"/>
<path d="M4867 9239 c-15 -4 -47 -7 -72 -7 -24 0 -57 -7 -72 -15 -48 -26 -100
-47 -116 -47 -8 0 -21 -9 -28 -20 -12 -18 -18 -19 -52 -9 -25 7 -41 18 -47 35
-11 29 -25 32 -17 4 3 -11 1 -20 -5 -20 -5 0 -6 -10 -3 -21 5 -14 3 -19 -3
-15 -6 3 -13 0 -16 -6 -6 -16 -36 18 -36 40 0 12 4 11 20 -3 28 -26 25 -3 -3
24 -20 18 -26 19 -35 8 -8 -10 -7 -20 4 -42 24 -46 -1 -86 -34 -53 -9 9 -12 9
-12 0 0 -6 -7 -9 -15 -6 -9 4 -15 0 -15 -10 0 -19 -35 -22 -46 -4 -5 8 -10 5
-15 -9 -4 -12 -20 -23 -38 -26 -18 -4 -31 -13 -31 -22 0 -8 -4 -15 -10 -15 -5
0 -10 -8 -10 -17 0 -15 -2 -16 -10 -3 -6 9 -10 10 -10 3 0 -6 -13 -14 -30 -18
-16 -4 -30 -13 -30 -20 0 -8 -8 -21 -17 -31 -10 -10 -16 -20 -14 -23 2 -3 -6
-10 -18 -16 -11 -5 -21 -15 -21 -21 0 -5 -17 -18 -37 -28 -85 -40 -143 -80
-143 -101 0 -12 -3 -16 -8 -8 -5 8 -12 8 -26 -3 -14 -10 -16 -14 -5 -14 8 0
-6 -13 -31 -28 -113 -68 -247 -203 -301 -302 -38 -69 -69 -160 -69 -200 0 -17
-8 -47 -19 -68 -31 -62 -72 -183 -83 -247 -11 -64 -12 -68 -27 -188 -11 -82
-9 -209 4 -239 4 -11 3 -18 -4 -18 -8 0 -9 -55 -5 -192 3 -106 5 -201 5 -212
0 -10 -8 -27 -18 -37 -56 -57 -74 -102 -81 -205 -6 -98 5 -185 20 -163 7 10 8
8 4 -10 -5 -26 24 -141 36 -141 4 0 0 20 -8 45 -9 24 -14 52 -11 62 4 15 5 14
6 -3 0 -12 14 -55 31 -95 32 -80 36 -99 19 -99 -6 0 -9 6 -6 13 6 16 -9 44
-18 35 -6 -6 32 -96 46 -108 3 -3 11 -20 18 -38 18 -43 36 -54 27 -16 -5 23
-4 26 4 11 6 -9 9 -25 6 -35 -4 -10 4 -29 18 -45 14 -16 32 -38 41 -50 16 -22
16 -22 10 6 -3 15 -1 27 5 27 5 0 10 -6 10 -12 0 -7 7 -2 16 10 9 13 13 26 10
29 -6 6 22 43 33 43 3 0 7 -21 9 -47 3 -54 -13 -103 -34 -103 -13 0 -19 -28
-16 -75 2 -19 1 -19 -9 -2 -6 10 -8 25 -5 33 3 8 1 14 -4 14 -16 0 -11 -47 6
-64 22 -23 62 -30 90 -17 23 10 24 9 24 -33 0 -23 3 -46 7 -50 4 -3 8 -16 10
-28 2 -11 10 -53 19 -92 9 -39 16 -79 16 -88 -1 -10 4 -18 9 -18 6 0 7 -5 4
-10 -4 -6 -1 -17 5 -25 7 -8 9 -15 5 -15 -4 0 -3 -6 2 -12 6 -7 10 -20 11 -28
0 -8 9 -42 21 -74 12 -33 21 -72 21 -87 0 -15 5 -31 10 -34 6 -3 10 -19 10
-35 0 -16 4 -31 9 -34 19 -12 36 -154 46 -381 2 -67 11 -142 19 -168 20 -67
71 -143 106 -157 29 -12 41 -30 20 -30 -5 0 -10 4 -10 9 0 5 -7 12 -16 15 -18
7 38 -60 73 -87 18 -14 22 -14 27 -2 3 10 0 12 -11 8 -12 -5 -14 -1 -8 16 6
19 4 22 -16 19 -12 -2 -24 3 -27 11 -3 9 0 11 8 6 9 -5 10 -2 5 14 -4 13 -2
21 6 21 8 0 8 4 2 13 -6 6 -15 27 -21 44 -10 31 -9 33 11 33 16 0 19 -3 8 -9
-11 -7 -10 -10 5 -15 11 -3 33 -20 51 -36 18 -17 46 -33 63 -36 16 -4 30 -12
30 -19 0 -7 7 -16 16 -19 22 -8 24 -8 24 8 0 7 9 16 19 19 14 3 18 1 14 -9 -4
-10 0 -12 11 -8 11 4 16 0 17 -12 0 -16 2 -16 11 4 13 27 24 28 37 5 9 -16 12
-16 21 -3 8 13 11 13 19 1 6 -9 19 -12 36 -9 33 7 85 -12 85 -29 0 -7 5 -13
11 -13 6 0 8 7 5 16 -5 12 -2 15 10 10 8 -3 21 -6 27 -6 7 0 6 -4 -3 -10 -9
-5 34 -9 120 -8 74 0 147 -3 163 -7 33 -9 35 1 5 27 l-23 20 30 -8 c17 -4 40
-11 53 -15 39 -15 48 -10 22 12 -18 15 -20 19 -7 15 10 -3 28 -6 38 -6 11 0
18 -4 15 -9 -3 -5 24 -8 59 -8 36 0 65 5 65 10 0 4 -9 5 -21 2 -18 -6 -19 -5
-7 14 13 22 33 27 42 12 7 -11 43 -3 73 17 13 8 29 12 38 9 8 -4 17 -2 20 3 9
15 25 12 25 -3 0 -8 12 -19 26 -25 14 -7 22 -17 19 -22 -3 -6 1 -7 9 -4 11 4
16 0 16 -10 0 -21 16 -20 25 2 6 16 7 16 21 -2 8 -11 14 -14 14 -8 0 7 12 12
26 12 14 0 23 -4 19 -10 -3 -6 1 -10 9 -10 9 0 16 5 16 10 0 15 38 12 43 -2 3
-10 8 -10 21 1 9 8 20 10 24 6 4 -4 2 -10 -4 -12 -6 -2 -20 -11 -30 -19 -18
-14 -17 -15 16 -10 19 4 46 18 61 32 17 16 32 23 40 19 7 -5 10 -4 6 2 -4 6 2
13 13 16 23 6 27 32 6 40 -9 4 -12 14 -9 26 4 16 13 21 37 21 18 0 41 7 52 15
10 8 28 15 39 15 11 1 31 15 44 32 20 24 22 31 10 39 -12 7 -12 9 0 9 12 0 12
3 3 12 -9 9 -21 9 -48 0 -40 -12 -64 -7 -64 14 0 16 17 19 22 4 2 -6 27 -8 67
-3 55 5 61 8 40 16 l-24 10 25 7 c17 6 19 8 7 9 -15 1 -16 4 -6 22 8 15 8 24
0 32 -16 16 -14 27 5 27 8 0 13 4 10 9 -3 5 7 8 24 7 29 -2 40 9 40 41 0 9 14
29 30 45 25 23 30 25 30 10 0 -10 9 -25 20 -35 23 -19 24 -15 11 31 -8 26 -7
34 5 39 7 3 14 12 14 20 0 9 6 13 14 10 10 -4 17 4 21 26 4 18 16 47 26 65 11
19 17 37 14 42 -3 4 2 10 10 14 8 3 15 17 15 31 0 14 4 25 9 25 5 0 24 30 42
66 26 51 30 67 20 73 -9 6 -10 11 -2 15 6 4 11 4 12 -1 2 -37 89 254 89 300 0
19 -1 19 -20 2 -11 -10 -17 -22 -14 -27 3 -5 -1 -17 -10 -27 -9 -10 -14 -25
-11 -33 4 -9 -1 -18 -9 -21 -10 -4 -16 -1 -16 8 0 10 -8 13 -22 11 -13 -3 -26
-5 -30 -5 -5 -1 -8 -10 -8 -22 0 -15 5 -19 15 -15 17 6 21 -19 5 -29 -6 -4 -8
-16 -4 -28 6 -20 5 -21 -11 -7 -16 14 -17 13 -11 -6 3 -12 3 -29 0 -39 -6 -15
-8 -15 -20 6 -7 13 -13 20 -14 14 0 -10 -50 -18 -50 -8 0 2 5 13 10 24 7 13 7
19 0 19 -5 0 -10 -3 -10 -8 0 -4 -12 -20 -26 -35 -14 -15 -32 -44 -41 -65 -13
-28 -18 -33 -21 -18 -2 10 2 22 8 26 10 6 8 14 -8 30 -11 12 -25 19 -31 15
-18 -10 -12 7 6 20 15 11 16 16 4 41 l-14 29 -9 -40 c-5 -22 -6 -50 -3 -62 4
-16 1 -23 -9 -23 -13 0 -31 -43 -23 -58 2 -4 -4 -15 -15 -24 -10 -10 -18 -14
-18 -8 0 6 -4 10 -9 10 -6 0 -13 -20 -17 -45 -8 -53 -14 -51 -30 11 -9 35 -9
44 1 40 9 -3 11 4 5 27 -19 80 -46 95 -37 21 6 -59 -1 -84 -23 -84 -22 0 -60
-45 -60 -71 0 -24 -18 -33 -35 -19 -12 10 -16 8 -24 -11 -9 -22 -84 -109 -94
-109 -3 0 -4 8 -3 18 1 11 -5 16 -19 15 -11 -1 -23 4 -27 10 -4 6 -10 8 -14 4
-4 -3 -1 -13 6 -22 10 -12 10 -15 -3 -15 -9 0 -19 5 -22 10 -10 16 -35 11 -35
-7 0 -15 -1 -15 -18 0 -24 22 -32 21 -33 0 0 -12 -4 -8 -11 10 -9 26 -28 38
-28 17 0 -18 -20 -11 -21 8 0 12 -3 10 -11 -8 -6 -14 -10 -37 -9 -52 1 -22 -3
-28 -19 -28 -11 0 -20 5 -20 10 0 7 -8 6 -22 -2 -36 -19 -48 -18 -48 5 0 33
-18 7 -23 -33 l-4 -35 -1 37 c-2 33 -5 37 -24 35 -13 -1 -28 -9 -35 -17 -11
-13 -13 -11 -14 10 -1 14 -1 35 0 47 1 12 -4 20 -11 19 -24 -3 -37 -17 -31
-31 3 -8 1 -15 -5 -15 -6 0 -12 5 -14 10 -2 6 -13 12 -25 14 -16 3 -20 1 -16
-10 3 -9 -2 -14 -15 -14 -11 0 -22 7 -26 15 -8 23 -25 18 -19 -6 5 -19 3 -21
-27 -14 -23 5 -30 4 -26 -4 9 -13 9 -13 -30 -2 -26 7 -30 6 -31 -12 -1 -11 -7
-25 -14 -31 -8 -8 -9 -3 -4 22 5 25 3 32 -9 32 -9 0 -16 8 -16 19 0 10 -7 25
-17 32 -15 13 -16 11 -9 -13 9 -37 -7 -36 -34 2 -12 17 -28 30 -36 30 -8 0
-14 7 -14 16 0 24 -23 11 -39 -22 -18 -36 -28 -14 -11 26 12 29 7 50 -11 50
-5 0 -9 -12 -9 -27 0 -33 -17 -20 -22 17 -3 27 -38 42 -38 16 0 -22 -20 -30
-33 -13 -7 8 -20 17 -30 21 -16 5 -18 2 -12 -24 4 -18 3 -30 -4 -30 -5 0 -11
10 -13 23 -2 17 -10 22 -33 22 -24 0 -30 4 -29 21 0 15 -4 20 -14 16 -12 -4
-14 0 -8 21 7 31 -11 67 -31 60 -16 -6 -17 19 -1 35 16 16 -6 64 -27 56 -16
-6 -40 40 -29 57 10 16 -28 9 -41 -7 -11 -15 -14 -15 -38 6 -15 13 -27 27 -27
31 0 14 -51 59 -61 54 -5 -3 -14 14 -21 39 -11 41 -15 46 -40 46 -25 0 -28 -3
-22 -25 11 -43 10 -60 -3 -58 -7 2 -13 -4 -13 -12 0 -9 -10 -15 -26 -15 -18 0
-25 4 -21 14 4 9 -3 16 -19 20 -14 4 -24 12 -22 18 3 7 -2 20 -11 30 -8 9 -16
24 -17 32 -1 8 -7 30 -12 48 -21 67 -24 108 -9 108 10 0 13 8 10 24 -3 13 0
27 6 30 15 10 14 27 -1 23 -9 -1 -14 12 -15 38 0 22 -6 41 -12 43 -6 2 -11 23
-11 47 0 35 -4 45 -20 50 -11 4 -21 16 -21 28 -4 65 -6 84 -13 100 -6 12 -4
17 8 17 14 0 15 4 6 20 -12 22 -35 26 -44 8 -5 -10 -7 -10 -12 0 -3 6 -14 12
-25 12 -17 0 -18 3 -9 21 9 16 8 23 -3 32 -8 7 -17 24 -21 38 -3 15 -15 29
-26 32 -20 5 -29 37 -10 37 6 0 10 9 10 19 0 15 -6 19 -26 17 -14 -2 -29 -9
-34 -16 -4 -7 -13 -10 -19 -6 -7 5 -10 -13 -10 -56 1 -82 -1 -98 -11 -98 -4 0
-10 7 -14 15 -3 8 -11 15 -18 14 -10 0 -10 -2 0 -6 18 -7 4 -23 -20 -23 -12 0
-22 -8 -25 -21 -4 -12 -11 -18 -20 -15 -11 4 -13 1 -8 -14 10 -31 0 -24 -29
21 -32 47 -39 70 -38 119 1 29 -1 32 -9 15 -6 -14 -8 -4 -3 35 3 30 10 58 17
62 7 4 11 39 11 91 0 64 3 84 13 80 20 -8 38 8 20 18 -8 5 -14 17 -12 27 2 9
4 20 4 25 1 4 6 7 12 7 8 0 8 -4 1 -13 -8 -9 -6 -16 8 -25 16 -10 18 -9 13 5
-4 11 -3 14 5 9 7 -4 12 -23 12 -42 0 -21 -4 -33 -10 -29 -5 3 -10 -2 -10 -12
0 -11 -5 -24 -12 -31 -9 -9 -9 -15 -1 -23 9 -9 14 -5 19 15 l6 27 16 -22 c13
-19 13 -24 1 -33 -22 -17 -22 -45 0 -90 11 -22 22 -49 25 -58 8 -26 26 -22 26
5 0 12 -5 51 -10 87 -12 78 -13 332 -1 340 4 3 5 28 2 56 -6 41 -4 51 6 47 7
-3 13 -1 13 5 0 6 -5 12 -10 14 -6 2 -8 22 -4 51 5 36 11 47 25 47 9 0 19 -5
21 -12 6 -16 38 -19 38 -3 0 8 -8 16 -17 18 -17 4 -17 5 0 6 13 1 17 10 17 39
1 32 2 35 12 17 16 -30 17 -30 33 -9 13 17 14 17 15 2 0 -10 6 -18 14 -18 15
0 29 27 21 40 -3 4 2 11 11 14 16 6 31 -2 63 -32 10 -10 16 -10 28 0 12 10 18
9 29 -7 13 -17 14 -17 14 -1 0 16 1 16 25 -1 28 -20 33 -63 11 -86 -8 -8 -16
-27 -18 -42 -3 -26 -1 -27 47 -32 27 -2 56 -10 65 -17 23 -21 109 -28 152 -13
26 9 35 16 27 24 -7 7 -6 12 5 16 10 4 16 1 16 -8 0 -8 7 -15 15 -15 8 0 15 9
15 19 0 13 5 18 18 14 10 -2 47 1 82 7 36 6 75 13 87 15 35 5 41 13 49 60 3
25 11 45 16 45 6 0 26 -17 45 -37 32 -36 33 -38 13 -41 -37 -6 -15 -25 32 -28
66 -4 81 16 42 57 -32 34 -90 72 -115 76 -9 1 -36 11 -60 21 -44 19 -116 22
-171 7 -32 -8 -38 8 -10 24 33 20 -52 12 -114 -10 -32 -11 -68 -22 -79 -24
-11 -1 -28 -6 -38 -10 -10 -4 -21 -5 -24 -1 -4 3 1 6 10 6 19 0 23 15 7 25
-17 11 -1 23 21 18 18 -5 20 -3 14 16 -5 18 -2 21 19 21 14 0 28 5 31 10 3 6
16 10 29 10 12 0 27 5 34 12 34 34 267 26 389 -13 75 -25 96 -49 87 -99 -6
-25 -4 -31 6 -25 7 4 15 4 19 -1 3 -5 15 -14 26 -20 11 -6 21 -21 23 -33 4
-23 17 -28 26 -8 3 6 3 -1 -1 -18 -7 -39 -19 -53 -46 -57 -17 -2 -21 -9 -19
-27 2 -13 0 -27 -5 -30 -4 -3 -14 -17 -21 -30 -12 -20 -12 -25 0 -32 11 -7 11
-9 -1 -9 -9 0 -11 -8 -7 -24 3 -14 2 -28 -4 -31 -5 -3 -10 -21 -10 -40 0 -18
-6 -40 -13 -47 -8 -7 -12 -19 -9 -27 2 -7 -2 -17 -9 -22 -12 -8 -11 -11 3 -20
13 -7 15 -15 9 -27 -60 -118 -68 -155 -42 -181 19 -19 21 -19 23 -3 0 9 2 22
2 28 2 22 57 84 75 84 9 0 22 5 28 11 8 8 13 8 18 -1 10 -16 34 19 34 50 0 14
-3 19 -6 13 -5 -15 -23 -17 -23 -4 0 5 7 17 16 26 10 10 14 25 10 43 -3 15 -3
21 0 15 4 -8 15 -2 32 18 21 25 23 34 14 49 -8 14 -8 20 0 22 7 3 12 21 12 41
0 21 5 37 11 37 17 0 33 38 40 93 5 39 3 47 -9 47 -12 0 -16 12 -18 53 -1 28
-3 68 -4 87 -1 19 3 44 9 55 9 18 7 18 -15 -2 -23 -22 -44 -31 -34 -15 2 4 -3
23 -11 42 -9 19 -15 41 -14 48 1 6 -2 12 -6 12 -4 0 -14 4 -22 9 -12 7 -10 14
7 36 11 14 18 33 15 41 -8 22 -42 17 -54 -8 -9 -23 -10 -23 -5 1 3 13 0 34 -6
45 -11 20 -12 20 -24 -9 l-13 -30 -1 28 c0 19 -4 26 -12 21 -6 -4 -16 -1 -22
7 -19 25 -82 49 -129 49 -25 0 -80 -6 -123 -14 -71 -13 -266 -39 -304 -41 -8
-1 -35 -10 -60 -22 -25 -11 -62 -23 -82 -27 -21 -4 -42 -14 -47 -24 -15 -27
-26 -5 -11 23 12 22 11 27 -6 40 -17 13 -17 14 -1 15 21 0 23 20 2 20 -8 0
-19 9 -25 20 -6 11 -17 20 -24 20 -9 0 -12 14 -10 53 1 28 0 42 -2 30 -5 -19
-12 -23 -45 -23 -39 0 -39 0 -39 39 0 25 5 41 15 45 22 8 18 36 -5 36 -34 0
-21 32 18 44 19 6 21 10 11 22 -6 8 -21 14 -32 14 -19 0 -19 1 -3 18 9 11 16
27 15 38 -1 10 -1 38 -1 62 2 49 19 55 48 17 24 -32 42 -32 79 4 17 16 46 44
66 62 31 30 35 39 34 79 -1 33 3 48 16 58 10 7 16 19 13 27 -4 8 -1 15 5 15 6
0 16 11 21 25 5 14 16 25 24 25 24 0 29 20 11 40 -16 18 -16 18 4 13 15 -4 21
-1 21 10 0 9 9 21 20 27 11 6 20 15 20 20 0 15 46 60 62 60 9 0 21 7 29 16 10
13 10 17 -2 25 -10 8 -8 9 9 4 14 -4 22 -2 22 5 0 7 -9 14 -20 17 -11 3 -20
10 -20 15 0 6 9 8 20 4 34 -10 66 -17 53 -10 -17 8 -16 27 1 21 7 -3 32 6 56
19 23 13 45 22 50 19 4 -3 22 2 39 11 18 9 55 20 84 24 74 12 268 67 280 79 6
6 19 11 29 11 10 0 18 5 18 10 0 6 9 10 19 10 11 0 21 5 23 11 2 6 22 11 43
11 22 0 65 7 95 17 77 23 310 22 357 -2 18 -9 43 -17 57 -17 14 0 27 -4 30 -9
7 -10 105 -36 124 -33 7 2 22 -4 34 -13 13 -8 32 -15 45 -15 12 0 28 -7 37
-15 8 -8 19 -15 24 -15 4 0 19 -11 32 -25 13 -14 29 -25 37 -25 7 0 13 -4 13
-10 0 -5 7 -10 16 -10 8 0 13 -4 10 -9 -3 -5 0 -9 7 -8 45 1 67 -5 67 -18 0
-8 6 -15 13 -15 7 0 20 -9 30 -20 10 -12 12 -20 5 -20 -7 0 -3 -6 8 -14 18
-14 18 -15 1 -21 -16 -7 -16 -8 -1 -20 9 -6 14 -17 11 -22 -6 -9 72 -56 96
-57 7 -1 37 -52 37 -63 0 -3 -9 -3 -20 0 -11 3 -22 2 -25 -3 -8 -12 59 -19 68
-6 5 6 6 1 2 -11 -4 -16 0 -26 15 -35 19 -12 80 -125 80 -150 0 -5 6 -8 13 -5
15 5 53 -45 68 -92 6 -20 17 -42 23 -50 9 -12 8 -13 -6 -8 -15 5 -16 3 -7 -20
5 -14 13 -31 17 -37 3 -6 7 -24 8 -40 1 -16 9 -35 18 -41 18 -14 21 -56 5 -72
-7 -7 -8 -28 -3 -59 5 -37 9 -44 14 -29 7 18 9 16 15 -10 3 -16 12 -43 18 -59
6 -17 12 -39 14 -50 6 -41 2 -213 -7 -293 -7 -60 -5 -124 6 -235 8 -84 15
-216 16 -293 1 -103 5 -144 15 -156 12 -14 11 -17 -7 -22 -13 -3 -21 -14 -22
-34 -1 -15 -2 -37 -3 -48 -1 -26 46 -50 80 -41 14 4 25 13 25 22 0 8 7 17 15
20 19 8 17 64 -2 64 -7 0 -13 11 -13 25 0 16 -6 25 -16 25 -11 0 -13 6 -9 20
3 10 -1 33 -10 49 -13 26 -13 38 -4 77 9 34 9 48 0 57 -16 16 -14 37 4 37 19
0 30 62 16 89 -10 18 -9 21 9 21 11 0 20 7 20 15 0 8 4 15 9 15 9 0 38 -99 69
-240 l19 -85 8 56 c4 35 3 64 -3 76 -6 10 -7 25 -3 32 5 7 5 28 1 46 -4 18 -6
44 -5 57 16 150 16 160 0 185 -9 13 -14 31 -11 40 4 9 -6 27 -26 45 -23 22
-32 38 -30 57 2 14 -4 64 -13 111 -16 89 -32 220 -41 330 -2 36 -7 81 -9 100
-3 19 -8 60 -11 90 -3 30 -10 63 -15 72 -5 9 -9 29 -9 44 0 25 -11 68 -30 119
-5 11 -14 36 -21 55 -11 31 -37 80 -111 209 -11 19 -35 53 -53 75 -18 23 -59
82 -91 131 -32 50 -64 97 -71 105 -6 8 -27 35 -45 60 -19 25 -44 50 -56 56
-12 6 -26 15 -30 19 -4 5 -1 5 6 1 28 -16 9 6 -28 33 -22 16 -70 56 -108 90
-100 90 -114 101 -129 101 -7 0 -13 7 -13 15 0 9 -6 12 -15 9 -9 -4 -25 6 -40
24 -15 18 -34 30 -49 30 -28 0 -194 79 -214 102 -10 11 -15 12 -18 3 -8 -18
-24 -16 -24 2 0 8 5 15 12 15 6 0 8 3 5 6 -4 4 -13 2 -21 -5 -11 -9 -17 -9
-28 2 -8 8 -24 18 -36 21 -12 4 -29 21 -38 38 -14 27 -18 29 -26 15 -6 -12
-16 -15 -33 -11 -16 4 -30 0 -40 -10 -19 -18 -46 -21 -42 -5 1 6 -4 14 -10 16
-7 3 -13 0 -13 -6 0 -6 -7 -8 -16 -4 -12 5 -13 7 -2 14 21 13 -4 27 -35 18z"/>
<path d="M2783 9125 c-22 -58 -37 -107 -33 -110 5 -3 15 7 22 22 11 24 19 28
53 28 36 0 42 -4 54 -32 13 -30 31 -44 31 -25 0 4 -13 54 -28 112 -18 65 -34
106 -43 108 -9 1 -28 -32 -56 -103z"/>
<path d="M5540 7560 c0 -6 -43 -8 -111 -5 -84 3 -120 1 -152 -11 -23 -9 -52
-18 -64 -21 -13 -3 -23 -10 -23 -17 0 -6 -5 -4 -11 4 -7 11 -12 12 -15 3 -3
-7 -12 -9 -20 -6 -10 3 -14 -2 -15 -18 0 -22 -1 -23 -8 -4 -6 13 -9 -1 -10
-45 0 -36 -2 -72 -3 -80 0 -8 0 -26 0 -39 2 -20 4 -21 17 -11 13 11 15 8 15
-19 0 -20 -4 -30 -11 -26 -5 4 -18 -3 -28 -14 -10 -12 -23 -21 -30 -21 -10 0
-15 -17 -13 -50 0 -8 -5 -18 -11 -23 -9 -5 -7 -11 6 -21 9 -7 17 -18 17 -25 0
-6 5 -11 11 -11 6 0 9 7 5 15 -8 21 13 62 35 68 10 3 21 18 25 33 4 16 16 41
27 56 11 14 16 31 12 37 -3 6 -3 10 2 9 15 -5 157 24 216 43 66 22 267 30 289
11 8 -6 25 -12 38 -14 14 -2 30 -7 37 -11 6 -4 18 -4 27 -1 9 3 22 2 29 -4 7
-6 30 -10 52 -10 56 0 65 -3 30 -12 -28 -7 -28 -8 12 -9 51 -1 96 -17 88 -31
-4 -6 8 -10 29 -10 29 0 36 4 36 19 0 24 -23 43 -44 35 -9 -3 -16 -1 -16 5 0
6 5 11 10 11 17 0 11 37 -6 44 -9 4 -14 9 -11 12 9 10 -62 55 -127 80 -32 13
-64 28 -72 34 -7 6 -21 10 -32 8 -10 -2 -27 4 -37 12 -17 14 -58 21 -118 21
-15 0 -39 4 -52 9 -16 6 -25 6 -25 0z"/>
<path d="M5628 7263 c23 -9 42 -20 42 -24 0 -3 -40 -4 -89 -1 -87 5 -221 -12
-221 -28 0 -4 -13 -13 -30 -20 -40 -17 -120 -92 -120 -114 0 -15 6 -17 43 -11
23 4 51 11 62 16 19 7 19 8 -2 8 -13 1 -23 4 -23 9 0 9 66 62 78 62 5 0 13
-17 18 -37 8 -34 13 -37 64 -49 30 -7 80 -13 110 -14 30 0 67 -6 82 -14 23
-12 29 -12 38 -1 7 8 9 19 5 25 -3 5 0 10 7 11 7 0 23 2 36 5 14 2 22 -1 22
-11 0 -18 54 -27 99 -17 26 6 37 14 42 35 4 15 3 27 -2 27 -5 0 -9 9 -9 19 0
45 -149 130 -239 137 l-56 4 43 -17z"/>
<path d="M483 7098 c-17 -22 -75 -188 -70 -201 2 -6 10 2 18 18 24 50 93 46
111 -5 5 -17 14 -30 19 -30 12 0 11 16 -1 54 -5 17 -19 64 -30 104 -21 72 -29
83 -47 60z"/>
<path d="M56 7038 c-23 -32 -20 -94 4 -118 27 -27 65 -26 84 2 21 29 21 102 0
122 -23 24 -70 20 -88 -6z"/>
<path d="M8343 6872 c-12 -7 -20 -80 -37 -337 -5 -71 3 -119 18 -104 3 3 10
70 16 150 22 294 16 267 58 278 20 5 51 12 67 14 17 2 -1 5 -40 5 -38 1 -76
-2 -82 -6z"/>
<path d="M8670 6854 c74 -23 73 -17 60 -225 -6 -101 -15 -196 -20 -212 -8 -25
-7 -26 10 -17 11 6 22 21 25 33 10 41 33 402 27 408 -10 9 -98 29 -124 28 -15
-1 -8 -6 22 -15z"/>
<path d="M4592 6524 c-42 -13 -64 -35 -65 -68 -1 -17 -7 -24 -15 -21 -7 2 -15
-2 -18 -10 -4 -8 -10 -12 -15 -9 -5 3 -9 -2 -9 -11 0 -9 4 -14 8 -11 4 3 21
-10 36 -28 18 -22 34 -32 45 -29 10 2 27 -6 41 -20 16 -16 30 -22 47 -19 29 6
51 51 31 64 -24 16 56 0 111 -22 51 -20 54 -20 67 -3 16 21 17 27 7 37 -5 4
-8 18 -8 29 0 18 -5 21 -27 19 -34 -3 -68 13 -68 34 0 8 -5 12 -11 9 -13 -9
-49 33 -43 50 7 17 -70 24 -114 9z"/>
<path d="M4986 6500 c-34 -11 -86 -58 -86 -78 0 -8 11 -25 24 -37 24 -22 25
-22 53 -4 17 12 37 17 52 14 26 -7 51 -28 51 -44 0 -19 17 -20 72 -5 56 16 96
53 61 55 -10 1 -24 1 -30 0 -8 -1 -13 10 -13 28 0 25 -7 35 -43 56 -45 26 -88
30 -141 15z"/>
<path d="M4810 6053 c0 -5 -44 -9 -98 -10 -101 -2 -225 -23 -286 -48 -53 -22
-116 -35 -116 -23 0 6 -9 7 -22 3 -13 -4 -35 -8 -49 -10 -45 -5 -69 -16 -69
-31 0 -8 7 -14 15 -14 8 0 15 -4 15 -10 0 -5 5 -10 12 -10 24 0 97 -42 103
-59 5 -17 86 -64 115 -67 9 0 31 -6 50 -11 19 -6 59 -11 88 -12 51 -2 52 -1
40 19 -11 17 -11 22 0 29 10 6 8 10 -10 15 -22 7 -21 8 17 26 44 21 70 25 60
10 -4 -6 5 -8 22 -5 33 6 116 13 156 14 15 1 27 7 27 14 0 9 -31 12 -118 14
-64 0 -130 6 -146 12 l-30 12 28 14 c18 10 34 12 44 6 11 -6 28 -3 51 10 39
21 120 26 138 8 8 -8 17 -8 31 0 33 18 129 14 140 -5 9 -16 11 -16 33 0 36 25
68 21 80 -10 5 -15 8 -29 6 -31 -5 -4 -86 -10 -165 -12 -28 -1 -41 -5 -37 -12
4 -6 13 -8 21 -5 7 3 16 1 19 -4 3 -5 34 -9 68 -9 84 1 89 0 82 -10 -3 -5 -1
-12 4 -15 5 -4 12 -2 16 4 3 5 19 10 36 10 26 0 29 -3 29 -30 0 -38 20 -47 69
-30 20 6 49 13 64 13 15 1 27 5 27 9 0 3 12 13 28 21 45 23 106 58 119 69 7 6
23 8 36 4 30 -7 64 28 47 49 -16 19 -69 25 -118 13 -28 -7 -51 -7 -70 0 -15 5
-47 16 -72 23 -25 7 -50 16 -56 21 -6 4 -24 9 -40 10 -16 1 -34 5 -40 10 -6 4
-53 8 -105 9 -208 2 -269 4 -269 12 0 4 -4 7 -10 7 -5 0 -10 -3 -10 -7z"/>
<path d="M1560 5043 c-14 -3 -28 -10 -31 -15 -7 -11 -26 -354 -22 -397 1 -13
8 -28 15 -32 14 -9 18 27 33 282 4 64 11 122 15 129 5 8 39 19 77 26 l68 12
-65 0 c-36 -1 -76 -3 -90 -5z"/>
<path d="M1830 5036 c0 -3 20 -11 45 -17 25 -6 49 -19 54 -28 12 -23 -15 -389
-30 -407 -20 -24 0 -29 25 -5 21 20 24 33 30 144 4 67 9 161 13 208 6 85 5 86
-18 92 -47 11 -119 19 -119 13z"/>
<path d="M5959 4778 c-17 -31 -5 -258 20 -383 11 -55 34 -134 51 -175 40 -94
109 -292 121 -345 17 -77 44 -152 62 -169 9 -10 17 -29 17 -44 0 -15 7 -51 15
-81 8 -30 19 -97 26 -150 6 -53 17 -141 25 -196 70 -487 106 -859 134 -1395
16 -306 14 -370 -16 -490 -33 -133 -186 -595 -254 -765 -51 -128 -183 -393
-254 -510 -20 -33 -36 -63 -36 -67 0 -5 720 -8 1600 -8 993 0 1600 4 1600 9 0
6 -5 13 -10 16 -16 10 -51 85 -45 95 3 6 1 10 -5 10 -9 0 -10 38 -5 143 8 159
2 184 -65 261 l-31 34 32 60 c47 90 48 126 8 307 -5 22 -13 110 -19 195 -6 85
-15 184 -20 220 -15 100 -58 348 -65 369 -3 10 4 39 15 65 23 55 25 83 8 138
-9 29 -9 41 0 50 7 7 12 22 12 34 0 22 -22 48 -33 38 -3 -3 -11 4 -17 17 -11
19 -10 24 5 35 10 8 22 11 26 8 5 -3 9 0 9 5 0 15 -43 14 -59 -2 -10 -10 -17
-6 -36 17 -26 32 -26 38 2 160 13 57 14 82 4 150 -6 44 -11 104 -11 132 0 28
-11 100 -24 160 -38 172 -81 254 -133 254 -14 0 -39 11 -56 24 -18 13 -77 47
-132 74 -85 43 -116 53 -210 68 -110 17 -111 17 -435 177 -405 200 -708 362
-910 488 -58 36 -134 83 -170 105 -36 21 -101 72 -146 114 -44 41 -107 90
-140 109 -84 49 -88 53 -165 177 -73 116 -155 207 -232 255 l-45 28 5 68 c7
107 8 109 55 120 l43 11 -52 1 c-44 1 -54 -2 -64 -21z m828 -2619 c13 -15 57
-53 99 -85 l76 -58 -6 -91 c-12 -166 -18 -215 -29 -215 -14 0 -143 107 -179
149 l-30 36 6 130 c9 186 13 194 63 134z"/>
<path d="M3640 4720 c-50 -34 -93 -76 -205 -200 -45 -50 -138 -119 -236 -177
-35 -20 -92 -59 -126 -85 -60 -46 -236 -138 -568 -298 -220 -106 -357 -175
-402 -203 -43 -27 -86 -34 -388 -63 -246 -23 -487 -76 -608 -135 -25 -11 -50
-16 -69 -12 -41 8 -73 -12 -109 -69 -54 -84 -80 -192 -88 -368 -8 -171 -16
-199 -85 -301 l-37 -54 1 40 c1 22 1 49 0 60 l-1 20 -7 -20 c-4 -11 -7 -101
-6 -200 1 -99 2 -204 3 -234 0 -41 -17 -106 -70 -265 -39 -116 -79 -247 -89
-291 -10 -44 -28 -107 -40 -140 -17 -49 -20 -79 -18 -160 3 -98 2 -102 -35
-179 -69 -143 -80 -229 -40 -323 10 -26 13 -52 8 -87 -6 -53 -34 -118 -35 -83
0 21 -40 85 -66 108 -25 21 -69 36 -59 19 4 -6 17 -15 29 -20 19 -8 18 -9 -9
-10 -27 -1 -28 -2 -12 -14 26 -20 20 -29 -15 -22 l-31 6 24 -23 c17 -16 29
-21 41 -15 26 12 31 10 14 -8 -18 -18 -22 -49 -5 -38 8 4 9 0 4 -15 -3 -11 -2
-21 3 -21 6 0 8 -9 5 -21 -4 -16 -8 -17 -14 -7 -7 10 -9 9 -9 -4 0 -22 -48
-78 -77 -89 -12 -5 -23 -15 -23 -24 0 -8 -5 -15 -11 -15 -5 0 -7 -5 -4 -10 9
-14 35 7 35 26 0 8 4 14 9 14 5 0 24 12 43 27 l33 27 -31 -35 c-17 -19 -40
-45 -52 -58 -12 -14 -32 -50 -44 -80 -21 -50 -23 -73 -23 -221 0 -157 -11
-230 -35 -230 -4 0 -12 -19 -18 -42 -6 -24 -18 -52 -26 -63 -14 -19 -15 -16
-14 32 1 54 -13 83 -39 83 -13 0 -13 -3 -3 -15 7 -8 12 -42 12 -75 l0 -60
1744 0 c959 0 1744 1 1744 3 0 4 -62 148 -130 302 -93 210 -146 335 -207 485
-30 74 -63 155 -75 180 -23 51 -38 88 -44 110 -2 8 -28 77 -59 152 -44 110
-53 142 -46 162 6 13 15 71 21 127 26 234 100 733 109 742 6 6 11 36 11 66 0
53 19 181 55 371 9 47 20 114 25 150 5 36 27 153 48 260 22 107 45 236 52 285
16 109 73 329 84 318 4 -4 4 0 0 10 -3 9 -2 17 4 17 5 0 8 12 5 28 -3 23 -2
24 6 7 7 -14 10 -16 11 -5 2 18 5 35 15 74 6 20 4 27 -3 22 -6 -3 -13 -2 -16
3 -4 5 -2 12 3 15 5 3 12 22 15 41 4 19 18 47 31 61 32 35 72 119 87 185 7 31
37 93 75 152 52 85 65 115 82 191 22 105 39 236 31 241 -3 1 -30 -14 -60 -35z"/>
<path d="M4594 4025 c17 -14 40 -28 53 -31 38 -10 26 -24 -21 -24 -49 0 -85
-11 -107 -32 -8 -7 -30 -25 -49 -39 -57 -42 -103 -94 -88 -97 7 -2 26 -19 41
-38 30 -35 31 -46 2 -17 -14 14 -18 14 -27 2 -8 -11 -8 -10 -4 5 6 16 4 17
-10 5 -14 -11 -18 -11 -30 6 -19 26 -18 5 2 -23 8 -12 13 -26 10 -31 -3 -4 4
-17 15 -27 21 -19 21 -18 44 9 13 15 29 27 35 27 6 0 41 -28 78 -62 37 -35 80
-72 95 -83 15 -11 30 -28 33 -37 3 -10 11 -18 18 -18 14 0 71 -66 110 -129 24
-38 26 -47 16 -67 -8 -13 -10 -34 -6 -51 13 -53 6 -78 -74 -238 -44 -89 -80
-168 -80 -177 0 -9 -4 -19 -9 -22 -5 -3 -11 -18 -14 -33 -3 -16 -10 -46 -17
-68 -12 -44 -19 -75 -24 -120 -2 -16 -7 -42 -11 -57 -5 -20 -3 -28 6 -28 12 0
12 -2 0 -9 -8 -5 -14 -32 -16 -69 -1 -33 -5 -65 -9 -70 -4 -6 -6 -23 -6 -39 0
-15 -2 -41 -4 -58 -3 -16 -7 -55 -10 -85 -3 -30 -12 -102 -20 -160 -8 -58 -15
-112 -15 -120 0 -20 -8 -72 -20 -140 -5 -30 -9 -62 -10 -70 0 -8 -15 -123 -34
-255 -26 -180 -32 -244 -23 -254 8 -11 8 -13 0 -8 -8 4 -14 -8 -18 -36 -8 -51
-72 -558 -81 -642 -3 -33 -8 -73 -11 -90 -2 -16 -11 -101 -19 -187 -8 -86 -18
-175 -21 -197 l-7 -41 91 0 c63 0 92 4 95 13 4 10 6 10 6 0 1 -10 37 -13 146
-13 109 0 145 3 145 13 0 9 2 9 8 0 5 -8 43 -11 117 -10 98 2 110 4 109 19 -1
10 3 15 8 12 5 -3 7 -12 4 -20 -4 -11 12 -14 88 -14 l94 0 17 78 c17 75 26
130 29 184 0 14 4 24 9 21 4 -2 8 8 8 24 2 39 3 45 37 243 32 181 47 285 57
380 3 30 10 87 15 125 17 120 29 243 44 445 28 363 31 444 30 770 0 436 -20
563 -145 955 -17 55 -33 116 -34 135 -1 19 -8 73 -14 120 -14 107 -14 200 0
200 5 0 8 -4 5 -9 -3 -5 6 -12 19 -15 16 -4 23 -11 19 -18 -4 -7 -3 -8 4 -4 7
4 12 1 12 -8 0 -9 7 -16 15 -16 19 0 19 14 1 32 -11 11 -11 17 -1 31 7 9 17
17 24 17 22 0 -7 36 -107 139 -126 129 -147 141 -239 141 -42 0 -73 4 -73 10
0 6 8 10 17 10 16 0 16 1 0 18 -17 16 -19 16 -31 0 -13 -17 -32 -26 -22 -10 2
4 -13 6 -35 5 -23 -1 -45 4 -53 13 -20 19 -82 32 -71 15 6 -10 3 -11 -13 -2
-24 13 -43 15 -23 2 9 -6 4 -10 -18 -13 -31 -5 -42 5 -18 16 6 3 2 3 -10 1
-12 -3 -24 -1 -28 5 -3 5 -12 10 -18 10 -7 0 1 -11 17 -25z"/>
<path d="M231 2678 c-80 -205 -78 -198 -57 -198 8 0 17 11 20 25 6 22 12 25
47 25 36 0 42 -3 52 -30 12 -32 37 -41 36 -12 0 9 -12 60 -27 112 -20 69 -32
96 -45 98 -10 2 -20 -5 -26 -20z"/>
<path d="M655 2668 c-2 -7 -5 -22 -7 -33 -2 -14 -12 -21 -33 -23 -46 -5 -65
-29 -65 -79 0 -56 25 -83 79 -83 l38 0 7 61 c9 92 7 169 -4 169 -6 0 -12 -6
-15 -12z"/>
<path d="M9073 2158 c-20 -26 -86 -199 -79 -206 7 -6 13 -1 41 41 7 10 21 13
48 10 32 -5 39 -10 44 -34 3 -16 12 -29 19 -29 18 0 18 7 -6 103 -31 124 -43
146 -67 115z"/>
<path d="M9488 2113 c-2 -22 -10 -29 -37 -34 -44 -9 -61 -28 -68 -76 -4 -33
-1 -45 16 -62 24 -24 99 -30 105 -8 3 6 7 56 10 110 5 81 4 97 -8 97 -9 0 -16
-12 -18 -27z"/>
</g>
</svg>
